<svg id="Layer_1" enable-background="new 0 0 511.985 511.985" height="512" viewBox="0 0 511.985 511.985" width="512" xmlns="http://www.w3.org/2000/svg"><g><path d="m258.453 396.142c-.226-2.624-1.096-6.017-3.658-8.894l-30.39-34.924c-5.451-6.263-14.949-6.925-21.214-1.472-6.265 5.451-6.924 14.948-1.472 21.214l7.068 8.123c-35.488-3.423-75.69-10.948-100.773-18.057-22.42-6.353-74.884-23.634-77.818-46.816-2.057-16.251 22.527-36.233 34.731-43.349 7.189-4.157 9.648-13.354 5.492-20.544-4.156-7.188-13.354-9.647-20.544-5.492-.535.309-13.238 7.707-25.438 19.442-17.975 17.291-26.304 35.837-24.086 53.633 3.815 30.604 36.35 54.175 99.464 72.06 27.414 7.769 70.073 15.737 107.967 19.243l-8.352 7.949c-6.016 5.725-6.251 15.242-.526 21.258 2.955 3.105 6.921 4.671 10.895 4.671 3.723 0 7.454-1.374 10.364-4.145l33.656-32.031c2.64-2.667 5.052-6.771 4.634-11.869z"/><path d="m470.994 246.147c-7.085-4.33-16.341-2.095-20.67 4.992s-2.095 16.341 4.992 20.67c.078.048 7.982 4.97 15.318 12.768 5.846 6.214 12.511 15.557 11.069 24.774-1.565 9.999-15.814 35.828-114.09 59.668-8.07 1.958-13.026 10.087-11.068 18.157 1.669 6.88 7.821 11.496 14.6 11.496 1.173 0 2.367-.139 3.557-.428 86.402-20.96 131.121-48.516 136.712-84.244 6.094-38.945-38.518-66.691-40.42-67.853z"/><path d="m133.025 204.717h-19.004c-8.304 0-15.037 6.732-15.037 15.037s6.732 15.037 15.037 15.037h19.004c7.621 0 13.821 6.2 13.821 13.821s-6.2 13.821-13.821 13.821h-18.3c-8.304 0-15.037 6.732-15.037 15.037s6.732 15.037 15.037 15.037h18.3c24.203 0 43.894-19.69 43.894-43.894 0-11.041-4.107-21.135-10.862-28.858 6.755-7.722 10.862-17.817 10.862-28.858 0-24.203-19.691-43.894-43.894-43.894h-19.004c-8.304 0-15.037 6.732-15.037 15.037 0 8.304 6.732 15.037 15.037 15.037h19.004c7.621 0 13.821 6.2 13.821 13.821 0 7.619-6.2 13.819-13.821 13.819z"/><path d="m411.731 251.074v-65.457c0-23.233-18.901-42.135-42.135-42.135s-42.135 18.901-42.135 42.135v65.457c0 23.233 18.901 42.135 42.135 42.135s42.135-18.902 42.135-42.135zm-54.196 0v-65.457c0-6.651 5.411-12.062 12.062-12.062s12.062 5.411 12.062 12.062v65.457c0 6.651-5.411 12.062-12.062 12.062s-12.062-5.411-12.062-12.062z"/><path d="m251.773 201.887h-.023c-3.4 0-6.736.421-9.947 1.238v-12.891c0-6.868 5.588-12.456 12.457-12.456h19.771c8.304 0 15.037-6.732 15.037-15.037 0-8.304-6.732-15.037-15.037-15.037h-19.771c-23.451 0-42.53 19.079-42.53 42.529v51.182c-.002.164-.003.329-.003.493v9.164c0 .127.001.255.005.382.207 21.893 18.08 39.641 40.021 39.641 22.069 0 40.023-17.954 40.023-40.023v-9.164c0-22.054-17.944-40.008-40.003-40.021zm9.93 49.187c0 5.486-4.464 9.95-9.95 9.95s-9.95-4.464-9.95-9.95v-9.41c.062-2.567 1.091-4.97 2.913-6.792 1.88-1.879 4.377-2.912 7.037-2.912h.006c5.483.003 9.944 4.467 9.944 9.95z"/><path d="m447.206 146.52c21.704 0 39.361-17.657 39.361-39.36 0-21.704-17.657-39.361-39.361-39.361s-39.361 17.657-39.361 39.361c0 21.703 17.657 39.36 39.361 39.36zm0-48.648c5.121 0 9.288 4.166 9.288 9.288 0 5.121-4.167 9.287-9.288 9.287s-9.288-4.166-9.288-9.287c0-5.122 4.167-9.288 9.288-9.288z"/></g></svg>