<svg height="479pt" viewBox="0 -23 479.99485 479" width="479pt" xmlns="http://www.w3.org/2000/svg"><path d="m434.128906 78.183594c0 12.800781-4.90625 24.960937-14.082031 33.917968l-64.425781 64.640626-98.132813-98.132813 64.640625-64.425781c18.132813-18.132813 49.707032-18.347656 67.839844 0l30.078125 30.078125c9.175781 8.960937 14.082031 21.121093 14.082031 33.921875zm0 0" fill="#607d8b"/><path d="m355.621094 176.742188-229.546875 229.546874c-2.132813 2.132813-4.90625 3.628907-7.679688 4.265626l-98.773437 23.253906c-1.066406.214844-2.347656.425781-3.625.425781-4.269532 0-8.320313-1.703125-11.308594-4.691406-3.839844-3.839844-5.546875-9.601563-4.265625-14.933594l23.253906-98.773437c.640625-2.773438 2.132813-5.546876 4.265625-7.679688l229.546875-229.546875zm0 0" fill="#90a4ae"/><path d="m463.996094 434.234375h-288c-8.832032 0-16-7.167969-16-16s7.167968-16 16-16h288c8.832031 0 16 7.167969 16 16s-7.167969 16-16 16zm0 0"/><path d="m15.996094 434.234375c-4.203125 0-8.277344-1.664063-11.308594-4.691406-3.925781-3.925781-5.523438-9.578125-4.265625-14.976563l23.253906-98.667968c.683594-2.898438 2.152344-5.546876 4.265625-7.636719l294.164063-294.164063c18.09375-18.113281 49.75-18.15625 67.882812 0l30.167969 30.164063c18.707031 18.710937 18.707031 49.175781 0 67.882812l-294.167969 294.144531c-2.109375 2.113282-4.757812 3.585938-7.636719 4.265626l-98.667968 23.253906c-1.234375.300781-2.472656.425781-3.6875.425781zm37.78125-106.578125-16.277344 69.074219 69.078125-16.277344 290.941406-290.941406c3.03125-3.03125 4.695313-7.039063 4.695313-11.328125 0-4.265625-1.664063-8.300782-4.695313-11.308594l-30.164062-30.164062c-6.039063-6.039063-16.597657-6.039063-22.613281 0zm60.882812 67.328125h.214844zm0 0"/><path d="m344.292969 181.351562c-4.09375 0-8.191407-1.558593-11.304688-4.695312l-75.4375-75.433594c-6.25-6.25-6.25-16.382812 0-22.632812 6.253907-6.253906 16.386719-6.253906 22.636719 0l75.433594 75.433594c6.25 6.25 6.25 16.382812 0 22.632812-3.136719 3.136719-7.230469 4.695312-11.328125 4.695312zm0 0"/></svg>