<svg clip-rule="evenodd" fill-rule="evenodd" stroke-linejoin="round" stroke-miterlimit="2" viewBox="0 0 100 100" xmlns="http://www.w3.org/2000/svg"><path d="m50 8.333c22.996 0 41.667 18.671 41.667 41.667s-18.671 41.667-41.667 41.667-41.667-18.671-41.667-41.667 18.671-41.667 41.667-41.667zm0 8.334c-18.397 0-33.333 14.936-33.333 33.333s14.936 33.333 33.333 33.333 33.333-14.936 33.333-33.333-14.936-33.333-33.333-33.333zm4.167 55.208c0 2.3-1.867 4.167-4.167 4.167s-4.167-1.867-4.167-4.167v-27.47c0-2.299 1.867-4.166 4.167-4.166s4.167 1.867 4.167 4.166zm0-41.357c0 2.299-1.867 4.166-4.167 4.166s-4.167-1.867-4.167-4.166v-2.393c0-2.3 1.867-4.167 4.167-4.167s4.167 1.867 4.167 4.167z"/></svg>