<svg height="512" viewBox="0 0 64 64" width="512" xmlns="http://www.w3.org/2000/svg"><g id="Layer_36" data-name="Layer 36"><path d="m54.77 19.94-17-17a1.5 1.5 0 0 0 -1.06-.44h-21.85a6.07 6.07 0 0 0 -6.07 6.07v46.86a6.07 6.07 0 0 0 6.07 6.07h34.28a6.07 6.07 0 0 0 6.07-6.07v-34.43a1.5 1.5 0 0 0 -.44-1.06z" fill="#ffc10a"/><path d="m54.77 19.94-17-17a1.5 1.5 0 0 0 -1.63-.33 1.51 1.51 0 0 0 -.93 1.39v17a1.5 1.5 0 0 0 1.5 1.5h17a1.51 1.51 0 0 0 1.39-.93 1.5 1.5 0 0 0 -.33-1.63z" fill="#fe9803"/><path d="m55.18 20.7a1.62 1.62 0 0 0 -.41-.76l-17-17a1.52 1.52 0 0 0 -1.06-.44h-21.85a6.07 6.07 0 0 0 -6.07 6.07v46.86a6.07 6.07 0 0 0 6.07 6.07h34.28a6.07 6.07 0 0 0 6.07-6.07v-34.43a1.53 1.53 0 0 0 -.03-.3zm-17-13.08 11.91 11.88h-11.88zm10.96 50.88h-34.28a3.08 3.08 0 0 1 -3.07-3.07v-46.86a3.08 3.08 0 0 1 3.07-3.07h20.35v15.5a1.5 1.5 0 0 0 1.5 1.5h15.5v32.93a3.08 3.08 0 0 1 -3.07 3.07z"/></g></svg>