<svg height="512" viewBox="0 0 64 64" width="512" xmlns="http://www.w3.org/2000/svg"><g id="Layer_5" data-name="Layer 5"><path d="m53.86 2.5h-37.57a7.65 7.65 0 0 0 -7.65 7.64v43.72a7.65 7.65 0 0 0 7.65 7.64h37.57a1.5 1.5 0 0 0 0-3h-37.57a4.65 4.65 0 1 1 0-9.29h37.57a1.5 1.5 0 0 0 1.5-1.5v-43.71a1.5 1.5 0 0 0 -1.5-1.5z" fill="#b3a9eb"/><path d="m53.86 52.36h-37.86a1.5 1.5 0 0 0 0 3h37.86a1.5 1.5 0 0 0 0-3z" fill="#b3a9eb"/><path d="m53.86 2.5h-37.57a7.65 7.65 0 0 0 -7.65 7.64v43.72a7.65 7.65 0 0 0 7.65 7.64h37.57a1.5 1.5 0 0 0 0-3h-37.57a4.65 4.65 0 1 1 0-9.29h37.57a1.5 1.5 0 0 0 1.5-1.5v-43.71a1.5 1.5 0 0 0 -1.5-1.5zm-1.5 43.71h-36.07a7.62 7.62 0 0 0 -4.65 1.59v-37.66a4.65 4.65 0 0 1 4.65-4.64h14.21v19.71a1.5 1.5 0 0 0 2.65 1l5.35-6.35 5.35 6.35a1.5 1.5 0 0 0 2.65-1v-19.71h5.86z" fill="#846adc"/><path d="m53.86 52.36h-37.86a1.5 1.5 0 0 0 0 3h37.86a1.5 1.5 0 0 0 0-3z" fill="#846adc"/><path d="m53.86 2.5h-37.57a7.65 7.65 0 0 0 -7.65 7.64v43.72a7.65 7.65 0 0 0 7.65 7.64h37.57a1.5 1.5 0 0 0 0-3h-37.57a4.65 4.65 0 1 1 0-9.29h37.57a1.5 1.5 0 0 0 1.5-1.5v-43.71a1.5 1.5 0 0 0 -1.5-1.5zm-10.36 3v15.61l-3.85-4.58a1.51 1.51 0 0 0 -2.3 0l-3.85 4.58v-15.61zm-31.86 42.3v-37.66a4.65 4.65 0 0 1 4.65-4.64h14.21v19.71a1.51 1.51 0 0 0 2.65 1l5.35-6.35 5.35 6.35a1.51 1.51 0 0 0 2.65-1v-19.71h5.86v40.71h-36.07a7.62 7.62 0 0 0 -4.65 1.59z"/><path d="m53.86 52.36h-37.86a1.5 1.5 0 0 0 0 3h37.86a1.5 1.5 0 0 0 0-3z"/></g></svg>